inDegrees=yes
name=ik_S41_A06_T01
DataType=double
version=3
OpenSimVersion=4.3-2021-08-27-4bc7ad9
endheader
time	pelvis_tilt	pelvis_list	pelvis_rotation	pelvis_tx	pelvis_ty	pelvis_tz	hip_flexion_r	hip_adduction_r	hip_rotation_r	knee_angle_r	knee_angle_r_beta	ankle_angle_r	subtalar_angle_r	mtp_angle_r	hip_flexion_l	hip_adduction_l	hip_rotation_l	knee_angle_l	knee_angle_l_beta	ankle_angle_l	subtalar_angle_l	mtp_angle_l	lumbar_extension	lumbar_bending	lumbar_rotation	arm_flex_r	arm_add_r	arm_rot_r	elbow_flex_r	pro_sup_r	wrist_flex_r	wrist_dev_r	arm_flex_l	arm_add_l	arm_rot_l	elbow_flex_l	pro_sup_l	wrist_flex_l	wrist_dev_l
5.339999999999974	-8.009142260741479	-4.789798583508211	32.90110689035338	0	0.9399999999999999	0	24.75908597541648	-8.449285808230256	-7.418177816132381	28.98417836717703	0.5058693434925532	0	0	0	24.75908597541648	-8.449285808230256	-7.418177816132381	28.98417836717703	0.5058693434925532	0	0	0	-9.083288774467919	-0.7196465358667982	3.11809151862486	37.16430856588002	1.442468090595053	4.528334263325995	13.26823625283376	97.15716041251356	0	0	62.78617629407347	-22.24611146765449	-16.26536898491083	37.95958901936151	77.42319993014023	0	0
5.359999999999974	-8.012488488623058	-4.788386592001865	32.79766469965087	0	0.9399999999999999	0	24.76539544492628	-8.450853993450284	-7.419854845852814	28.99016982196071	0.5059739141055127	0	0	0	24.76539544492628	-8.450853993450284	-7.419854845852814	28.99016982196071	0.5059739141055127	0	0	0	-9.077017218154779	-0.7401933296237638	3.230966033201851	37.11008752548594	1.477284824155071	4.473796189830018	13.33223493975474	97.15964804879474	0	0	62.68741151496401	-21.36338134300652	-15.93734598794833	37.74470485166754	78.1105900064844	0	0
5.379999999999973	-8.021594094489958	-4.790081814038912	32.69991892373631	0	0.9399999999999999	0	24.77283158166482	-8.452701755861437	-7.421831287961906	28.99722842832501	0.5060971100271719	0	0	0	24.77283158166482	-8.452701755861437	-7.421831287961906	28.99722842832501	0.5060971100271719	0	0	0	-9.078149336525845	-0.7578308934118203	3.332008643347839	37.09272351742428	1.47015408338029	4.39167822603811	13.3839304889264	97.19694480402801	0	0	62.65792875332274	-20.52714369788454	-15.89797454428217	37.50092105243274	79.08209990701307	0	0
5.399999999999973	-8.025476963566199	-4.791085456943357	32.57788554279992	0	0.9399999999999999	0	24.78189384781423	-8.454948632327474	-7.424237050454816	29.00584075466476	0.5062474234780568	0	0	0	24.78189384781423	-8.454948632327474	-7.424237050454816	29.00584075466476	0.5062474234780568	0	0	0	-9.074036441437514	-0.7788018180226499	3.436751020014504	37.0928538929108	1.479473381140642	4.403710538363826	13.38304716817524	97.18108516208103	0	0	62.65994183236082	-19.76774758402614	-16.00383159820633	37.24040423342228	80.45116379034161	0	0
5.419999999999972	-8.029210537667876	-4.789297942678818	32.51679241154132	0	0.9399999999999999	0	24.79001842499154	-8.456958228617907	-7.426391018641582	29.01357298397258	0.5063823763379974	0	0	0	24.79001842499154	-8.456958228617907	-7.426391018641582	29.01357298397258	0.5063823763379974	0	0	0	-9.071861549036004	-0.7874303197505361	3.494758163919231	37.09485173573606	1.480140130768492	4.411371807018107	13.38904339925922	97.18145490479718	0	0	62.66898879861922	-19.25191907245378	-16.25247610322526	37.14108629994185	81.16537606819624	0	0
5.439999999999972	-8.047187708849007	-4.701240859705951	32.56725190804332	0	0.9399999999999999	0	24.79512528337757	-8.45820029492916	-7.427731062153677	29.01850347749013	0.5064684296836269	0	0	0	24.79512528337757	-8.45820029492916	-7.427731062153677	29.01850347749013	0.5064684296836269	0	0	0	-9.027208562713501	-0.7405771008794209	3.681249348873567	37.01391531181493	1.272552664070703	4.256943006366915	13.36839679913623	97.19712540650802	0	0	62.61536259458001	-18.46149489998834	-16.36555587793932	36.9665025801032	81.43545667842261	0	0
5.459999999999972	-8.064714926468113	-4.664855076118807	32.53339058294146	0	0.9399999999999999	0	24.80135947230658	-8.459735697770435	-7.429379819719464	29.0244531679612	0.5065722713718217	0	0	0	24.80135947230658	-8.459735697770435	-7.429379819719464	29.0244531679612	0.5065722713718217	0	0	0	-9.014213085020023	-0.7251875135865521	3.80497469005846	36.9919717684993	1.227001677004152	4.295783583928646	13.35967210131386	97.17917895795372	0	0	62.69495333009019	-17.73827792752456	-16.34094728364211	36.71905624173831	81.11803399614189	0	0
